# Blender 4.0.2
# www.blender.org
mtllib base.mtl
o Cube
v 0.199759 5.674150 0.298314
v 0.278105 6.381965 -0.191514
v 0.449563 5.587626 0.002971
v 0.333176 6.133692 -0.008020
v -0.000000 5.647962 0.370630
v 0.000000 6.455688 -0.166405
v 0.000000 5.561601 0.059720
v 0.000000 6.206613 0.140229
v 0.465231 5.238333 -0.052593
v 0.432875 5.141068 -0.408848
v 0.000000 5.164561 -0.443635
v 0.000000 5.300681 -0.065071
v 0.602430 5.102011 -0.098840
v 0.570075 5.088655 -0.410947
v 0.000000 4.985448 -0.447633
v 0.000000 5.068457 -0.051026
v 0.578804 4.153492 -0.107824
v 0.546448 4.153492 -0.417579
v 0.000000 4.153492 -0.449935
v 0.000000 4.153492 -0.107824
v 0.637870 4.578773 0.066988
v 0.605515 4.504940 -0.417579
v 0.000000 4.640793 -0.449935
v -0.000000 4.578773 0.066988
v 0.490857 2.998061 -0.085815
v -0.000000 2.814033 -0.085504
v 0.000000 4.844654 -0.449935
v 0.603022 4.791373 -0.045267
v 0.570667 4.788951 -0.417579
v 0.000000 4.856045 -0.036407
v 0.853829 5.008778 -0.135231
v 0.821473 5.008778 -0.449910
v 0.901674 4.884697 -0.077598
v 0.869319 4.882275 -0.449910
v 0.823300 3.848359 -0.058006
v 0.790629 3.856542 -0.444486
v 1.148052 3.842746 -0.091567
v 1.115381 3.850930 -0.478047
v 0.879099 2.860561 -0.080823
v 0.846428 2.868745 -0.467302
v 1.087537 2.942778 -0.114384
v 1.054865 2.950962 -0.500863
v 0.000000 3.638762 -0.116646
v 0.506643 3.638762 -0.116646
v 0.477728 3.638762 -0.405084
v 0.000000 3.638762 -0.433999
v 0.611937 0.273752 -0.028844
v 0.592855 0.450698 -0.297008
v 0.307456 0.420408 -0.329686
v 0.307456 0.253110 -0.029063
v 0.615322 0.031537 -0.288209
v 0.329923 0.001247 -0.320887
v 0.612700 0.227457 0.241940
v 0.308219 0.206816 0.241722
v 0.635167 0.013935 0.381341
v 0.330686 -0.006707 0.381122
v 0.726068 2.321257 -0.086969
v 0.719500 2.336504 -0.473448
v 0.837102 2.230052 -0.120530
v 0.830534 2.245299 -0.507009
v 1.000575 2.603438 -0.503936
v 0.870314 2.651846 -0.470375
v 0.882043 2.640131 -0.083896
v 1.012304 2.591722 -0.117457
v 1.059738 2.800932 -0.039051
v 0.926787 2.787435 -0.020405
v 0.924468 2.681583 -0.022112
v 0.996839 2.654688 -0.040758
v 1.022022 2.755914 0.120097
v 0.955961 2.757056 0.126924
v 0.972495 2.712216 0.126299
v 0.998993 2.702368 0.119472
v 0.566252 1.629565 0.153229
v 0.552945 1.512019 -0.092293
v 0.539714 1.772546 -0.106570
v 0.267546 1.481716 -0.124973
v 0.235397 1.739693 -0.143521
v 0.251501 1.607729 0.151249
v 0.000000 6.180860 -0.912763
v 0.351278 6.148490 -0.821376
v 0.425446 5.785379 -0.716996
v 0.371110 5.444434 -0.511914
v 0.418438 6.369434 -0.523882
v 0.361120 6.464126 -0.200988
v 0.447945 6.142431 0.013970
v 0.312389 5.660824 0.331543
v 0.000000 5.468408 -0.636831
v 0.000000 6.566567 -0.192047
v 0.000000 6.476530 -0.576560
v 0.508941 5.973782 -0.329947
v 0.000000 5.866537 -0.901180
v 0.384451 5.332468 -0.457083
v 0.000000 5.301866 -0.511550
v 0.000000 5.408056 -0.012628
v 0.411709 5.432024 -0.058240
v 0.471023 2.766349 -0.368914
v 0.464104 3.269965 -0.421054
v -0.000000 3.072865 -0.457941
v 0.049506 2.588090 -0.400463
v -0.000000 2.814033 -0.230627
v -0.199759 5.674150 0.298314
v -0.278105 6.381965 -0.191514
v -0.449563 5.587626 0.002971
v -0.333176 6.133692 -0.008020
v -0.465231 5.238333 -0.052593
v -0.432875 5.141068 -0.408848
v -0.602430 5.102011 -0.098840
v -0.570075 5.088655 -0.410947
v -0.578804 4.153492 -0.107824
v -0.546448 4.153492 -0.417579
v -0.637870 4.578773 0.066988
v -0.605515 4.504940 -0.417579
v -0.490857 2.998061 -0.085816
v -0.603022 4.791373 -0.045267
v -0.570667 4.788951 -0.417579
v -0.853829 5.008778 -0.135231
v -0.821473 5.008778 -0.449910
v -0.901674 4.884697 -0.077598
v -0.869319 4.882275 -0.449910
v -0.823300 3.848359 -0.058006
v -0.790629 3.856542 -0.444486
v -1.148052 3.842746 -0.091567
v -1.115381 3.850930 -0.478047
v -0.879099 2.860561 -0.080823
v -0.846428 2.868745 -0.467302
v -1.087537 2.942778 -0.114384
v -1.054865 2.950962 -0.500863
v -0.506643 3.638762 -0.116646
v -0.477728 3.638762 -0.405084
v -0.611937 0.273752 -0.028844
v -0.592855 0.450698 -0.297008
v -0.307456 0.420408 -0.329686
v -0.307456 0.253111 -0.029063
v -0.615322 0.031537 -0.288209
v -0.329923 0.001247 -0.320887
v -0.612700 0.227457 0.241940
v -0.308219 0.206816 0.241722
v -0.635167 0.013935 0.381341
v -0.330686 -0.006707 0.381122
v -0.726068 2.321257 -0.086969
v -0.719500 2.336504 -0.473448
v -0.837102 2.230052 -0.120530
v -0.830534 2.245299 -0.507009
v -1.000575 2.603438 -0.503936
v -0.870314 2.651846 -0.470375
v -0.882043 2.640131 -0.083896
v -1.012304 2.591722 -0.117457
v -1.059738 2.800932 -0.039051
v -0.926787 2.787435 -0.020405
v -0.924468 2.681583 -0.022112
v -0.996839 2.654688 -0.040758
v -1.022022 2.755914 0.120097
v -0.955961 2.757056 0.126924
v -0.972495 2.712216 0.126299
v -0.998993 2.702368 0.119472
v -0.566252 1.629566 0.153229
v -0.552945 1.512019 -0.092293
v -0.539714 1.772547 -0.106570
v -0.267546 1.481716 -0.124973
v -0.235397 1.739693 -0.143521
v -0.251501 1.607729 0.151249
v -0.351278 6.148490 -0.821376
v -0.425446 5.785379 -0.716996
v -0.371110 5.444434 -0.511914
v -0.418438 6.369434 -0.523882
v -0.361120 6.464126 -0.200988
v -0.447945 6.142431 0.013970
v -0.312389 5.660824 0.331543
v -0.508941 5.973782 -0.329947
v -0.384451 5.332468 -0.457083
v -0.411709 5.432024 -0.058240
v -0.471023 2.766350 -0.368914
v -0.464104 3.269965 -0.421054
v -0.049506 2.588090 -0.400463
vn 0.1397 -0.9356 0.3244
vn -0.1599 -0.9756 0.1506
vn 0.0911 0.1402 0.9859
vn 0.3810 0.3916 0.8376
vn 0.3465 0.6776 0.6487
vn 0.1057 -0.3174 -0.9424
vn -0.1814 0.5789 0.7950
vn -0.2822 0.5015 0.8178
vn 0.0309 -0.0756 0.9967
vn 0.0309 -0.1482 0.9885
vn 0.0556 -0.0039 -0.9984
vn 0.0658 0.0652 -0.9957
vn 0.5339 0.8244 -0.1881
vn -0.0075 0.0423 0.9991
vn 0.9885 -0.1350 -0.0680
vn -0.0000 -0.3802 0.9249
vn 0.0276 0.4044 0.9142
vn 0.9892 0.1195 -0.0853
vn 0.0556 0.0040 -0.9984
vn 0.9943 -0.0305 -0.1020
vn 0.1620 -0.2469 -0.9554
vn 0.0596 0.0203 -0.9980
vn -0.1286 0.0008 -0.9917
vn 0.0499 0.1292 0.9904
vn 0.9371 0.3373 -0.0895
vn 0.3180 0.9466 -0.0530
vn -0.9699 -0.2294 0.0814
vn 0.1197 0.2585 0.9586
vn -0.1283 0.0243 -0.9914
vn 0.1036 0.0110 0.9946
vn -0.1055 0.0028 -0.9944
vn 0.9693 0.2319 -0.0813
vn -0.2080 0.1080 -0.9722
vn -0.9949 -0.0581 0.0829
vn 0.1283 -0.0243 0.9914
vn 0.9942 -0.0647 -0.0854
vn 0.9857 -0.1352 -0.1010
vn 0.0597 -0.0315 -0.9977
vn -0.0000 -0.0171 0.9999
vn -0.9989 -0.0348 -0.0303
vn 0.0056 -0.1323 0.9912
vn -0.9769 -0.2130 -0.0197
vn 0.0915 0.1919 -0.9771
vn -0.9981 -0.0541 -0.0301
vn 0.0609 0.0417 -0.9973
vn -0.0469 0.1757 0.9833
vn 0.9980 0.0527 -0.0362
vn -0.9955 -0.0949 -0.0037
vn 0.1153 -0.0147 -0.9932
vn -0.0374 0.5435 0.8386
vn 0.0871 -0.9960 -0.0199
vn -0.0668 0.9835 0.1683
vn 0.9980 0.0613 -0.0177
vn -0.6381 -0.7697 -0.0195
vn -0.8997 0.4349 0.0365
vn 0.2071 -0.1095 0.9722
vn 0.9012 -0.4319 -0.0364
vn 0.9815 -0.1814 -0.0611
vn -0.8061 -0.0102 0.5918
vn -0.9965 -0.0619 0.0556
vn -0.1964 0.0213 -0.9803
vn -0.2709 -0.9216 0.2779
vn -0.1316 -0.7790 0.6130
vn -0.0199 0.5325 0.8462
vn 0.9546 -0.2664 0.1334
vn 0.1433 -0.0220 0.9894
vn -0.9632 -0.0948 0.2515
vn 0.9131 -0.3940 0.1050
vn -0.0298 0.9708 0.2380
vn 0.9960 0.0464 -0.0762
vn 0.1226 -0.0520 -0.9911
vn -0.9923 -0.1237 -0.0012
vn 0.9973 0.0446 -0.0577
vn 0.3152 -0.1265 -0.9406
vn 0.9600 0.2730 0.0625
vn 0.2647 0.9381 -0.2235
vn 0.2510 0.7371 -0.6275
vn 0.2009 -0.5252 -0.8269
vn 0.9589 -0.0028 0.2836
vn 0.9709 -0.2208 -0.0932
vn 0.9572 0.1011 -0.2711
vn 0.2442 -0.5327 -0.8104
vn 0.1311 -0.4067 0.9041
vn 0.9919 -0.0887 -0.0912
vn 0.9621 0.2355 -0.1373
vn 0.9972 0.0060 -0.0747
vn -0.9844 -0.1162 -0.1323
vn 0.1198 -0.1027 -0.9875
vn 0.9949 0.0412 -0.0917
vn -0.1397 -0.9356 0.3244
vn 0.1599 -0.9756 0.1506
vn -0.0911 0.1402 0.9859
vn -0.3810 0.3916 0.8376
vn -0.3465 0.6776 0.6487
vn -0.1057 -0.3174 -0.9424
vn 0.1814 0.5789 0.7950
vn 0.2822 0.5015 0.8178
vn -0.0309 -0.0756 0.9967
vn -0.0309 -0.1482 0.9885
vn -0.0556 -0.0039 -0.9984
vn -0.0658 0.0652 -0.9957
vn -0.5339 0.8244 -0.1881
vn 0.0075 0.0423 0.9991
vn -0.9885 -0.1350 -0.0680
vn -0.0276 0.4044 0.9142
vn -0.9892 0.1195 -0.0853
vn -0.0556 0.0040 -0.9984
vn -0.9943 -0.0305 -0.1020
vn -0.1620 -0.2469 -0.9554
vn -0.0596 0.0203 -0.9980
vn 0.1286 0.0008 -0.9917
vn -0.0499 0.1292 0.9904
vn -0.9371 0.3373 -0.0895
vn -0.3180 0.9466 -0.0530
vn 0.9699 -0.2294 0.0814
vn -0.1197 0.2585 0.9586
vn 0.1283 0.0243 -0.9914
vn -0.1036 0.0110 0.9946
vn 0.1055 0.0028 -0.9944
vn -0.9693 0.2319 -0.0813
vn 0.2080 0.1080 -0.9722
vn 0.9949 -0.0581 0.0829
vn -0.1283 -0.0243 0.9914
vn -0.9942 -0.0647 -0.0854
vn -0.9857 -0.1352 -0.1010
vn -0.0597 -0.0315 -0.9977
vn 0.9989 -0.0348 -0.0303
vn -0.0056 -0.1323 0.9912
vn 0.9769 -0.2130 -0.0197
vn -0.0915 0.1919 -0.9771
vn 0.9981 -0.0541 -0.0301
vn -0.0609 0.0417 -0.9973
vn 0.0469 0.1757 0.9833
vn -0.9980 0.0527 -0.0362
vn 0.9955 -0.0949 -0.0037
vn -0.1153 -0.0147 -0.9932
vn 0.0374 0.5435 0.8386
vn -0.0871 -0.9960 -0.0199
vn 0.0668 0.9835 0.1683
vn -0.9980 0.0613 -0.0177
vn 0.6381 -0.7697 -0.0195
vn 0.8997 0.4349 0.0365
vn -0.2071 -0.1095 0.9722
vn -0.9012 -0.4319 -0.0364
vn -0.9815 -0.1814 -0.0611
vn 0.8061 -0.0102 0.5918
vn 0.9965 -0.0619 0.0556
vn 0.1964 0.0213 -0.9803
vn 0.2709 -0.9216 0.2779
vn 0.1316 -0.7790 0.6130
vn 0.0199 0.5325 0.8462
vn -0.9546 -0.2664 0.1334
vn -0.1433 -0.0220 0.9894
vn 0.9632 -0.0948 0.2515
vn -0.9131 -0.3940 0.1050
vn 0.0298 0.9708 0.2380
vn -0.9960 0.0464 -0.0762
vn -0.1226 -0.0520 -0.9911
vn 0.9923 -0.1237 -0.0012
vn -0.9973 0.0446 -0.0577
vn -0.3152 -0.1265 -0.9406
vn -0.9600 0.2730 0.0625
vn -0.2647 0.9381 -0.2235
vn -0.2510 0.7371 -0.6275
vn -0.2009 -0.5252 -0.8269
vn -0.9589 -0.0028 0.2836
vn -0.9709 -0.2208 -0.0932
vn -0.9572 0.1011 -0.2711
vn -0.2442 -0.5327 -0.8104
vn -0.1311 -0.4067 0.9041
vn -0.9919 -0.0887 -0.0912
vn -0.9621 0.2355 -0.1373
vn -0.9972 0.0060 -0.0747
vn 0.9844 -0.1162 -0.1323
vn -0.1198 -0.1027 -0.9875
vn -0.9949 0.0412 -0.0917
vt 0.250000 0.625000
vt 0.375000 0.625000
vt 0.375000 0.750000
vt 0.250000 0.750000
vt 0.625000 0.875000
vt 0.625000 0.750000
vt 0.500000 0.750000
vt 0.500000 0.875000
vt 0.375000 0.875000
vt 0.375000 0.500000
vt 0.375000 0.375000
vt 0.375000 0.500000
vt 0.375000 0.500000
vt 0.000000 0.000000
vt 0.500000 0.375000
vt 0.625000 0.375000
vt 0.625000 0.500000
vt 0.500000 0.500000
vt 0.500000 0.625000
vt 0.625000 0.625000
vt 0.750000 0.625000
vt 0.750000 0.750000
vt 0.750000 0.500000
vt 0.375000 0.375000
vt 0.375000 0.518371
vt 0.375000 0.400683
vt 0.375000 0.381868
s 0
f 7/1/1 3/2/1 1/3/1 5/4/1
f 3/2/2 86/3/2 1/3/2
f 6/5/3 2/6/3 84/6/3 88/5/3
f 1/3/4 4/7/4 8/8/4 5/9/4
f 4/7/5 2/6/5 6/5/5 8/8/5
f 10/10/6 11/11/6 93/11/6 92/10/6
f 4/7/7 1/3/7 86/3/7 85/7/7
f 2/6/8 4/7/8 85/7/8 84/6/8
f 9/2/9 12/1/9 16/1/9 13/2/9
f 95/2/10 94/1/10 12/1/10 9/2/10
f 23/11/11 22/10/11 18/10/11 19/11/11
f 11/11/12 10/10/12 14/10/12 15/11/12
f 10/10/13 9/2/13 13/2/13 14/10/13
f 44/2/14 43/1/14 26/1/14 25/2/14
f 22/10/15 21/2/15 17/2/15 18/10/15
f 21/2/16 24/1/16 20/1/16 17/2/16
f 28/2/17 30/1/17 24/1/17 21/2/17
f 29/10/18 28/2/18 21/2/18 22/10/18
f 27/11/19 29/10/19 22/10/19 23/11/19
f 45/10/20 44/2/20 25/2/20 97/10/20
f 99/11/21 96/12/21 75/10/21 77/11/21
f 15/11/22 14/10/22 29/10/22 27/11/22
f 29/10/23 14/10/23 32/10/23 34/10/23
f 13/2/24 16/1/24 30/1/24 28/2/24
f 32/10/25 31/2/25 33/2/25 34/10/25
f 14/10/26 13/2/26 31/2/26 32/10/26
f 28/2/27 29/10/27 36/10/27 35/2/27
f 13/2/28 28/2/28 33/2/28 31/2/28
f 36/10/29 38/10/29 42/10/29 40/10/29
f 33/2/30 28/2/30 35/2/30 37/2/30
f 29/10/31 34/10/31 38/10/31 36/10/31
f 34/10/32 33/2/32 37/2/32 38/10/32
f 62/13/33 61/10/33 60/10/33 58/10/33
f 35/2/34 36/10/34 40/10/34 39/2/34
f 37/2/35 35/2/35 39/2/35 41/2/35
f 38/10/36 37/2/36 41/2/36 42/10/36
f 18/10/37 17/2/37 44/2/37 45/10/37
f 19/11/38 18/10/38 45/10/38 46/11/38
f 17/2/39 20/1/39 43/1/39 44/2/39
f 78/14/40 76/14/40 49/14/40 50/14/40
f 73/2/41 78/1/41 50/1/41 47/2/41
f 26/14/42 100/14/42 99/14/42 77/14/42 78/14/42
f 76/11/43 74/10/43 48/10/43 49/11/43
f 50/14/44 49/14/44 52/14/44
f 46/11/45 45/10/45 97/10/45 98/11/45
f 25/2/46 26/1/46 78/1/46 73/2/46
f 48/10/47 47/2/47 51/10/47
f 50/14/48 52/14/48 56/14/48 54/14/48
f 49/11/49 48/10/49 51/10/49 52/11/49
f 53/2/50 54/1/50 56/1/50 55/2/50
f 52/1/51 51/2/51 55/2/51 56/1/51
f 47/2/52 50/1/52 54/1/52 53/2/52
f 51/2/53 47/2/53 53/2/53 55/2/53
f 57/2/54 58/10/54 60/10/54 59/2/54
f 63/2/55 62/13/55 58/10/55 57/2/55
f 64/2/56 63/2/56 57/2/56 59/2/56
f 61/10/57 64/2/57 59/2/57 60/10/57
f 42/10/58 41/2/58 64/2/58 61/10/58
f 39/2/59 63/2/59 67/2/59 66/2/59
f 39/2/60 40/10/60 62/13/60 63/2/60
f 40/10/61 42/10/61 61/10/61 62/13/61
f 67/2/62 68/2/62 72/2/62 71/2/62
f 63/2/63 64/2/63 68/2/63 67/2/63
f 41/2/64 39/2/64 66/2/64 65/2/64
f 64/2/65 41/2/65 65/2/65 68/2/65
f 69/2/66 70/2/66 71/2/66 72/2/66
f 66/2/67 67/2/67 71/2/67 70/2/67
f 68/2/68 65/2/68 69/2/68 72/2/68
f 65/2/69 66/2/69 70/2/69 69/2/69
f 73/2/70 74/10/70 75/10/70
f 74/10/71 76/11/71 77/11/71 75/10/71
f 76/14/72 78/14/72 77/14/72
f 74/10/73 73/2/73 47/2/73 48/10/73
f 91/15/74 79/16/74 80/17/74 81/18/74
f 90/19/75 83/20/75 84/6/75 85/7/75
f 83/20/76 89/21/76 88/22/76 84/6/76
f 80/17/77 79/23/77 89/21/77 83/20/77
f 87/24/78 82/10/78 92/10/78 93/11/78
f 3/2/79 90/19/79 85/7/79 86/3/79
f 82/10/80 81/18/80 90/19/80 3/2/80
f 81/18/81 80/17/81 83/20/81 90/19/81
f 87/11/82 91/15/82 81/18/82 82/10/82
f 3/2/83 7/1/83 94/1/83 95/2/83
f 95/2/84 92/10/84 82/10/84 3/2/84
f 92/10/85 95/2/85 9/2/85 10/10/85
f 96/12/86 97/25/86 25/2/86
f 98/26/87 99/11/87 100/27/87
f 96/12/88 99/11/88 98/11/88 97/10/88
f 96/10/89 25/2/89 73/2/89 75/10/89
f 7/1/90 5/4/90 101/3/90 103/2/90
f 103/2/91 101/3/91 168/3/91
f 6/5/92 88/5/92 166/6/92 102/6/92
f 101/3/93 5/9/93 8/8/93 104/7/93
f 104/7/94 8/8/94 6/5/94 102/6/94
f 106/10/95 170/10/95 93/11/95 11/11/95
f 104/7/96 167/7/96 168/3/96 101/3/96
f 102/6/97 166/6/97 167/7/97 104/7/97
f 105/2/98 107/2/98 16/1/98 12/1/98
f 171/2/99 105/2/99 12/1/99 94/1/99
f 23/11/100 19/11/100 110/10/100 112/10/100
f 11/11/101 15/11/101 108/10/101 106/10/101
f 106/10/102 108/10/102 107/2/102 105/2/102
f 128/2/103 113/2/103 26/1/103 43/1/103
f 112/10/104 110/10/104 109/2/104 111/2/104
f 111/2/16 109/2/16 20/1/16 24/1/16
f 114/2/105 111/2/105 24/1/105 30/1/105
f 115/10/106 112/10/106 111/2/106 114/2/106
f 27/11/107 23/11/107 112/10/107 115/10/107
f 129/10/108 173/10/108 113/2/108 128/2/108
f 174/11/109 160/11/109 158/10/109 172/12/109
f 15/11/110 27/11/110 115/10/110 108/10/110
f 115/10/111 119/10/111 117/10/111 108/10/111
f 107/2/112 114/2/112 30/1/112 16/1/112
f 117/10/113 119/10/113 118/2/113 116/2/113
f 108/10/114 117/10/114 116/2/114 107/2/114
f 114/2/115 120/2/115 121/10/115 115/10/115
f 107/2/116 116/2/116 118/2/116 114/2/116
f 121/10/117 125/10/117 127/10/117 123/10/117
f 118/2/118 122/2/118 120/2/118 114/2/118
f 115/10/119 121/10/119 123/10/119 119/10/119
f 119/10/120 123/10/120 122/2/120 118/2/120
f 145/13/121 141/10/121 143/10/121 144/10/121
f 120/2/122 124/2/122 125/10/122 121/10/122
f 122/2/123 126/2/123 124/2/123 120/2/123
f 123/10/124 127/10/124 126/2/124 122/2/124
f 110/10/125 129/10/125 128/2/125 109/2/125
f 19/11/126 46/11/126 129/10/126 110/10/126
f 109/2/39 128/2/39 43/1/39 20/1/39
f 161/14/127 133/14/127 132/14/127 159/14/127
f 156/2/128 130/2/128 133/1/128 161/1/128
f 26/14/129 161/14/129 160/14/129 174/14/129 100/14/129
f 159/11/130 132/11/130 131/10/130 157/10/130
f 133/14/131 135/14/131 132/14/131
f 46/11/132 98/11/132 173/10/132 129/10/132
f 113/2/133 156/2/133 161/1/133 26/1/133
f 131/10/134 134/10/134 130/2/134
f 133/14/135 137/14/135 139/14/135 135/14/135
f 132/11/136 135/11/136 134/10/136 131/10/136
f 136/2/137 138/2/137 139/1/137 137/1/137
f 135/1/138 139/1/138 138/2/138 134/2/138
f 130/2/139 136/2/139 137/1/139 133/1/139
f 134/2/140 138/2/140 136/2/140 130/2/140
f 140/2/141 142/2/141 143/10/141 141/10/141
f 146/2/142 140/2/142 141/10/142 145/13/142
f 147/2/143 142/2/143 140/2/143 146/2/143
f 144/10/144 143/10/144 142/2/144 147/2/144
f 127/10/145 144/10/145 147/2/145 126/2/145
f 124/2/146 149/2/146 150/2/146 146/2/146
f 124/2/147 146/2/147 145/13/147 125/10/147
f 125/10/148 145/13/148 144/10/148 127/10/148
f 150/2/149 154/2/149 155/2/149 151/2/149
f 146/2/150 150/2/150 151/2/150 147/2/150
f 126/2/151 148/2/151 149/2/151 124/2/151
f 147/2/152 151/2/152 148/2/152 126/2/152
f 152/2/153 155/2/153 154/2/153 153/2/153
f 149/2/154 153/2/154 154/2/154 150/2/154
f 151/2/155 155/2/155 152/2/155 148/2/155
f 148/2/156 152/2/156 153/2/156 149/2/156
f 156/2/157 158/10/157 157/10/157
f 157/10/158 158/10/158 160/11/158 159/11/158
f 159/14/159 160/14/159 161/14/159
f 157/10/160 131/10/160 130/2/160 156/2/160
f 91/15/161 163/18/161 162/17/161 79/16/161
f 169/19/162 167/7/162 166/6/162 165/20/162
f 165/20/163 166/6/163 88/22/163 89/21/163
f 162/17/164 165/20/164 89/21/164 79/23/164
f 87/24/165 93/11/165 170/10/165 164/10/165
f 103/2/166 168/3/166 167/7/166 169/19/166
f 164/10/167 103/2/167 169/19/167 163/18/167
f 163/18/168 169/19/168 165/20/168 162/17/168
f 87/11/169 164/10/169 163/18/169 91/15/169
f 103/2/170 171/2/170 94/1/170 7/1/170
f 171/2/171 103/2/171 164/10/171 170/10/171
f 170/10/172 106/10/172 105/2/172 171/2/172
f 172/12/173 113/2/173 173/25/173
f 98/26/174 100/27/174 174/11/174
f 172/12/175 173/10/175 98/11/175 174/11/175
f 172/10/176 158/10/176 156/2/176 113/2/176
