# Blender 4.0.2
# www.blender.org
mtllib walk.mtl
o Cube
v 0.194833 3.876334 0.873236
v 0.273180 3.920368 1.682980
v 0.444638 4.239974 0.945180
v 0.328251 3.887466 1.376015
v -0.004925 3.818796 0.817264
v -0.004925 3.861449 1.733912
v -0.004925 4.158268 0.914027
v -0.004925 3.722689 1.364037
v 0.460305 4.485911 0.753184
v 0.427950 4.640282 0.481003
v -0.004925 4.685920 0.603811
v -0.004925 4.370957 0.767881
v 0.597505 4.533487 0.661656
v 0.565149 4.577378 0.393056
v -0.004925 4.553351 0.445159
v -0.004925 4.318580 0.699673
v 0.573878 3.755992 0.129561
v 0.541523 3.920677 -0.110119
v -0.004925 4.001070 -0.192525
v -0.004925 3.756974 0.035700
v 0.632945 4.015949 0.689505
v 0.600590 4.088186 0.215449
v -0.004925 4.323222 0.183923
v -0.004925 3.904035 0.501968
v 0.485931 2.824028 -0.058645
v -0.004925 2.597210 -0.025512
v -0.004925 4.453702 0.337455
v 0.598097 4.260990 0.717903
v 0.565741 4.263000 0.354887
v -0.004925 4.176705 0.595675
v 0.848903 4.485231 0.630671
v 0.816548 4.472586 0.316246
v 0.896749 4.363567 0.693244
v 0.864393 4.346186 0.321330
v 0.818375 3.328853 0.754464
v 0.785703 3.321500 0.367968
v 1.143127 3.321897 0.721156
v 1.110455 3.314543 0.334660
v 0.874174 2.340937 0.771361
v 0.841502 2.333583 0.384864
v 1.082611 2.421738 0.734523
v 1.049940 2.414385 0.348027
v -0.004925 3.430057 -0.061650
v 0.501718 3.430449 -0.104096
v 0.472802 3.453497 -0.368634
v -0.004925 3.437102 -0.374123
v 0.607011 0.192365 0.613622
v 0.587929 0.303108 0.312030
v 0.302530 0.266131 0.287167
v 0.302530 0.172223 0.618142
v 0.610396 -0.102868 0.416707
v 0.324997 -0.139844 0.391845
v 0.607774 0.209394 0.887807
v 0.303293 0.189252 0.892327
v 0.630241 0.033524 1.072453
v 0.325760 0.013382 1.076974
v 0.721143 1.801821 0.786891
v 0.714575 1.801525 0.400111
v 0.832176 1.709341 0.757022
v 0.825608 1.709045 0.370242
v 0.995649 2.067019 0.358921
v 0.865388 2.116736 0.390510
v 0.877118 2.120561 0.777148
v 1.007378 2.070843 0.745559
v 1.054813 2.283035 0.815495
v 0.921862 2.270297 0.834668
v 0.919543 2.164463 0.837216
v 0.991914 2.136840 0.819666
v 1.017097 2.244448 0.976323
v 0.951036 2.245863 0.983099
v 0.967569 2.201034 0.984276
v 0.994067 2.190920 0.977850
v 0.561326 1.553804 0.479961
v 0.548019 1.383092 0.267933
v 0.534788 1.633404 0.194298
v 0.262620 1.346102 0.243072
v 0.230472 1.592953 0.165865
v 0.246575 1.532094 0.483040
v -0.004925 4.644389 1.873864
v 0.346353 4.581882 1.799755
v 0.420521 4.675277 1.433666
v 0.366185 4.725308 0.971221
v 0.413513 4.213518 1.840105
v 0.356195 3.887029 1.758668
v 0.443019 3.864075 1.372446
v 0.307464 3.867572 0.858676
v -0.004925 4.804032 1.090985
v -0.004925 3.827552 1.842552
v -0.004925 4.204865 1.959140
v 0.504016 4.246075 1.400682
v -0.004925 4.793212 1.596766
v 0.379526 4.738336 0.795284
v -0.004925 4.783316 0.846457
v -0.004925 4.289133 0.823402
v 0.406783 4.395018 0.850416
v 0.466098 2.541015 -0.289294
v 0.459179 3.057030 -0.387252
v -0.004925 2.864926 -0.389181
v 0.044581 2.361944 -0.284674
v -0.004925 2.601721 -0.168249
v -0.204684 3.876245 0.873301
v -0.283031 3.920368 1.682980
v -0.454489 4.239406 0.946006
v -0.338102 3.887466 1.376015
v -0.470156 4.484282 0.755425
v -0.437801 4.641609 0.483376
v -0.607356 4.530776 0.664747
v -0.575000 4.579462 0.395958
v -0.583729 3.755398 0.127380
v -0.551374 3.920987 -0.112240
v -0.642796 4.011731 0.685933
v -0.610440 4.089402 0.211431
v -0.495782 2.686816 0.031435
v -0.607948 4.256645 0.716157
v -0.575592 4.265306 0.352880
v -0.858754 4.482417 0.632904
v -0.826399 4.475792 0.318295
v -0.906600 4.359576 0.693137
v -0.874244 4.349318 0.320958
v -0.828226 3.323880 0.734539
v -0.795554 3.323926 0.347973
v -1.152977 3.317562 0.701104
v -1.120306 3.317609 0.314538
v -0.884025 2.335821 0.732522
v -0.851353 2.335867 0.345955
v -1.092462 2.417313 0.697238
v -1.059791 2.417359 0.310671
v -0.511568 3.409690 -0.047326
v -0.482653 3.453462 -0.353120
v -0.616862 0.279845 -1.274371
v -0.597781 0.567384 -1.417700
v -0.312382 0.557557 -1.461161
v -0.312382 0.262094 -1.284909
v -0.620248 0.200286 -1.620216
v -0.334849 0.190458 -1.663676
v -0.617626 0.104041 -1.063278
v -0.313145 0.086290 -1.073816
v -0.640093 -0.150596 -1.049700
v -0.335612 -0.168347 -1.060237
v -0.730994 1.796507 0.737730
v -0.724425 1.803615 0.351015
v -0.842027 1.704615 0.706096
v -0.835459 1.711724 0.319381
v -1.005500 2.069848 0.314915
v -0.875239 2.118952 0.347449
v -0.886968 2.115375 0.734090
v -1.017229 2.066270 0.701555
v -1.064664 2.277085 0.775540
v -0.931712 2.263982 0.794466
v -0.929394 2.158119 0.794987
v -1.001765 2.130837 0.776911
v -1.026948 2.235426 0.935600
v -0.960887 2.236712 0.942401
v -0.977420 2.191868 0.942720
v -1.003918 2.181880 0.936102
v -0.571178 1.361713 -0.437148
v -0.557871 1.383086 -0.708518
v -0.544640 1.615670 -0.590267
v -0.272472 1.373249 -0.751986
v -0.240323 1.605767 -0.638709
v -0.256426 1.343812 -0.449808
v -0.356204 4.581882 1.799755
v -0.430372 4.675277 1.433666
v -0.376036 4.725509 0.972068
v -0.423364 4.213518 1.840105
v -0.366046 3.887029 1.758668
v -0.452870 3.864075 1.372446
v -0.317315 3.867285 0.858871
v -0.513867 4.246075 1.400682
v -0.389377 4.738768 0.796712
v -0.416634 4.394228 0.851759
v -0.475949 2.605870 -0.318671
v -0.469029 3.069088 -0.304714
v -0.054432 2.459340 -0.425133
vn 0.0873 0.2030 -0.9753
vn -0.1037 0.2611 -0.9597
vn 0.0911 -0.9216 -0.3772
vn 0.3954 -0.9101 -0.1240
vn 0.3465 -0.9022 0.2570
vn 0.0348 0.9440 -0.3282
vn -0.1365 -0.9897 0.0435
vn -0.2822 -0.9591 0.0195
vn 0.2959 -0.9128 0.2816
vn 0.1818 -0.6825 -0.7080
vn 0.2693 0.7791 -0.5661
vn -0.0973 0.7529 -0.6509
vn 0.2517 0.9180 0.3064
vn 0.0628 0.0558 0.9965
vn 0.9929 -0.0521 -0.1073
vn -0.0005 -0.9295 0.3687
vn -0.1997 -0.2376 0.9506
vn 0.9807 0.1865 -0.0593
vn 0.2750 0.6819 -0.6778
vn 0.9937 -0.0320 -0.1071
vn 0.1678 -0.4602 -0.8718
vn 0.0199 0.3323 -0.9430
vn -0.1945 0.0522 -0.9795
vn -0.0409 -0.1144 0.9926
vn 0.9371 0.3334 -0.1029
vn 0.2948 0.9554 0.0185
vn -0.9704 -0.2257 0.0858
vn 0.0672 0.2955 0.9530
vn -0.1283 -0.0156 -0.9916
vn 0.0845 0.0525 0.9950
vn -0.1020 -0.0374 -0.9941
vn 0.9693 0.2284 -0.0906
vn -0.2080 0.0688 -0.9757
vn -0.9949 -0.0547 0.0851
vn 0.1283 0.0156 0.9916
vn 0.9942 -0.0681 -0.0828
vn 0.9853 -0.0818 -0.1502
vn 0.1028 0.3847 -0.9173
vn -0.0425 -0.4483 0.8929
vn -0.9989 -0.0408 -0.0215
vn 0.0056 0.0985 0.9951
vn -0.9744 -0.2246 0.0110
vn 0.0915 -0.0372 -0.9951
vn -0.9981 -0.0596 -0.0169
vn 0.0002 0.0347 -0.9994
vn -0.0818 0.3982 0.9136
vn 0.9980 0.0430 -0.0473
vn -0.9955 -0.0932 0.0181
vn 0.1153 -0.2420 -0.9634
vn -0.0374 0.7213 0.6916
vn 0.0871 -0.9740 0.2090
vn -0.0668 0.9959 -0.0617
vn 0.9980 0.0556 -0.0313
vn -0.6381 -0.7698 0.0114
vn -0.8997 0.4360 0.0190
vn 0.2071 -0.0704 0.9758
vn 0.9012 -0.4330 -0.0190
vn 0.9815 -0.1837 -0.0537
vn -0.8061 0.0136 0.5917
vn -0.9965 -0.0596 0.0581
vn -0.1964 -0.0182 -0.9804
vn -0.2709 -0.9097 0.3147
vn -0.1316 -0.7538 0.6438
vn -0.0199 0.5661 0.8241
vn 0.9546 -0.2609 0.1440
vn 0.1433 0.0177 0.9895
vn -0.9632 -0.0846 0.2551
vn 0.9131 -0.3894 0.1207
vn -0.0298 0.9796 0.1988
vn 0.9960 0.0277 -0.0848
vn 0.1226 -0.2779 -0.9528
vn -0.9923 -0.1207 0.0272
vn 0.9973 0.0301 -0.0664
vn 0.3152 0.8756 0.3661
vn 0.9600 -0.1919 0.2039
vn 0.2647 -0.2811 0.9225
vn 0.2510 0.1691 0.9531
vn 0.1587 0.9872 -0.0130
vn 0.9560 -0.2220 -0.1917
vn 0.9772 0.1803 -0.1124
vn 0.9572 0.1829 0.2243
vn 0.2549 0.9658 0.0464
vn 0.1698 -0.5202 -0.8370
vn 0.9919 0.1261 -0.0115
vn 0.9378 0.2621 0.2278
vn 0.9966 -0.0024 -0.0828
vn -0.9799 -0.1282 -0.1527
vn 0.0767 -0.1902 -0.9787
vn 0.9950 0.0202 -0.0973
vn -0.0887 0.2036 -0.9750
vn 0.1021 0.2623 -0.9596
vn -0.0911 -0.9216 -0.3772
vn -0.3953 -0.9101 -0.1239
vn -0.3465 -0.9022 0.2570
vn -0.0345 0.9442 -0.3274
vn 0.1373 -0.9895 0.0441
vn 0.2822 -0.9591 0.0195
vn -0.2911 -0.9132 0.2852
vn -0.1828 -0.6823 -0.7079
vn -0.2654 0.7789 -0.5682
vn 0.0963 0.7537 -0.6501
vn -0.2577 0.9128 0.3169
vn 0.0762 0.0742 0.9943
vn -0.9928 -0.0523 -0.1078
vn 0.0018 -0.9305 0.3664
vn 0.1968 -0.2408 0.9504
vn -0.9810 0.1856 -0.0566
vn -0.2701 0.6836 -0.6781
vn -0.9929 -0.0393 -0.1122
vn -0.1448 0.2704 -0.9518
vn -0.0209 0.3423 -0.9394
vn 0.1926 0.0686 -0.9789
vn 0.0400 -0.1254 0.9913
vn -0.9371 0.3353 -0.0965
vn -0.2964 0.9544 0.0359
vn 0.9704 -0.2274 0.0815
vn -0.0680 0.2778 0.9582
vn 0.1283 0.0034 -0.9917
vn -0.0850 0.0334 0.9958
vn 0.1020 -0.0184 -0.9946
vn -0.9693 0.2301 -0.0862
vn 0.2080 0.0875 -0.9742
vn 0.9949 -0.0564 0.0841
vn -0.1283 -0.0034 0.9917
vn -0.9942 -0.0665 -0.0840
vn -0.9845 -0.0953 -0.1472
vn -0.1142 0.3700 -0.9220
vn 0.0978 -0.3641 0.9262
vn 0.9989 -0.0149 -0.0437
vn -0.0056 -0.6114 0.7913
vn 0.9796 -0.1800 -0.0900
vn -0.0915 0.6559 -0.7493
vn 0.9981 -0.0317 -0.0532
vn -0.1196 -0.0363 -0.9922
vn 0.0373 -0.3312 0.9428
vn -0.9980 0.0638 -0.0049
vn 0.9955 -0.0802 -0.0508
vn -0.1153 0.4852 -0.8668
vn 0.0374 0.0499 0.9981
vn -0.0871 -0.8518 -0.5165
vn 0.0668 0.7666 0.6387
vn -0.9980 0.0619 0.0154
vn 0.6381 -0.7699 -0.0033
vn 0.8997 0.4356 0.0273
vn -0.2071 -0.0891 0.9743
vn -0.9012 -0.4326 -0.0273
vn -0.9815 -0.1827 -0.0572
vn 0.8061 0.0022 0.5918
vn 0.9965 -0.0607 0.0569
vn 0.1964 0.0006 -0.9805
vn 0.2709 -0.9156 0.2972
vn 0.1316 -0.7660 0.6293
vn 0.0199 0.5502 0.8348
vn -0.9546 -0.2636 0.1390
vn -0.1433 -0.0012 0.9897
vn 0.9632 -0.0894 0.2535
vn -0.9131 -0.3917 0.1132
vn 0.0298 0.9756 0.2175
vn -0.9960 0.0784 -0.0427
vn -0.1226 0.4518 -0.8836
vn 0.9923 -0.1065 -0.0631
vn -0.9973 0.0675 -0.0276
vn -0.3152 0.8756 0.3661
vn -0.9600 -0.1919 0.2039
vn -0.2647 -0.2811 0.9225
vn -0.2510 0.1691 0.9531
vn -0.1580 0.9874 -0.0125
vn -0.9560 -0.2219 -0.1917
vn -0.9772 0.1802 -0.1127
vn -0.9572 0.1829 0.2243
vn -0.2547 0.9659 0.0466
vn -0.1709 -0.5192 -0.8374
vn -0.9920 0.1258 -0.0117
vn -0.9379 0.2606 0.2289
vn -0.9980 0.0167 -0.0604
vn 0.9856 -0.1088 -0.1296
vn -0.1843 0.0683 -0.9805
vn -0.9946 0.0822 -0.0634
vt 0.250000 0.625000
vt 0.375000 0.625000
vt 0.375000 0.750000
vt 0.250000 0.750000
vt 0.625000 0.875000
vt 0.625000 0.750000
vt 0.500000 0.750000
vt 0.500000 0.875000
vt 0.375000 0.875000
vt 0.375000 0.500000
vt 0.375000 0.375000
vt 0.375000 0.500000
vt 0.375000 0.500000
vt 0.000000 0.000000
vt 0.500000 0.375000
vt 0.625000 0.375000
vt 0.625000 0.500000
vt 0.500000 0.500000
vt 0.500000 0.625000
vt 0.625000 0.625000
vt 0.750000 0.625000
vt 0.750000 0.750000
vt 0.750000 0.500000
vt 0.375000 0.375000
vt 0.375000 0.518371
vt 0.375000 0.400683
vt 0.375000 0.381868
s 0
f 7/1/1 3/2/1 1/3/1 5/4/1
f 3/2/2 86/3/2 1/3/2
f 6/5/3 2/6/3 84/6/3 88/5/3
f 1/3/4 4/7/4 8/8/4 5/9/4
f 4/7/5 2/6/5 6/5/5 8/8/5
f 10/10/6 11/11/6 93/11/6 92/10/6
f 4/7/7 1/3/7 86/3/7 85/7/7
f 2/6/8 4/7/8 85/7/8 84/6/8
f 9/2/9 12/1/9 16/1/9 13/2/9
f 95/2/10 94/1/10 12/1/10 9/2/10
f 23/11/11 22/10/11 18/10/11 19/11/11
f 11/11/12 10/10/12 14/10/12 15/11/12
f 10/10/13 9/2/13 13/2/13 14/10/13
f 44/2/14 43/1/14 26/1/14 25/2/14
f 22/10/15 21/2/15 17/2/15 18/10/15
f 21/2/16 24/1/16 20/1/16 17/2/16
f 28/2/17 30/1/17 24/1/17 21/2/17
f 29/10/18 28/2/18 21/2/18 22/10/18
f 27/11/19 29/10/19 22/10/19 23/11/19
f 45/10/20 44/2/20 25/2/20 97/10/20
f 99/11/21 96/12/21 75/10/21 77/11/21
f 15/11/22 14/10/22 29/10/22 27/11/22
f 29/10/23 14/10/23 32/10/23 34/10/23
f 13/2/24 16/1/24 30/1/24 28/2/24
f 32/10/25 31/2/25 33/2/25 34/10/25
f 14/10/26 13/2/26 31/2/26 32/10/26
f 28/2/27 29/10/27 36/10/27 35/2/27
f 13/2/28 28/2/28 33/2/28 31/2/28
f 36/10/29 38/10/29 42/10/29 40/10/29
f 33/2/30 28/2/30 35/2/30 37/2/30
f 29/10/31 34/10/31 38/10/31 36/10/31
f 34/10/32 33/2/32 37/2/32 38/10/32
f 62/13/33 61/10/33 60/10/33 58/10/33
f 35/2/34 36/10/34 40/10/34 39/2/34
f 37/2/35 35/2/35 39/2/35 41/2/35
f 38/10/36 37/2/36 41/2/36 42/10/36
f 18/10/37 17/2/37 44/2/37 45/10/37
f 19/11/38 18/10/38 45/10/38 46/11/38
f 17/2/39 20/1/39 43/1/39 44/2/39
f 78/14/40 76/14/40 49/14/40 50/14/40
f 73/2/41 78/1/41 50/1/41 47/2/41
f 26/14/42 100/14/42 99/14/42 77/14/42 78/14/42
f 76/11/43 74/10/43 48/10/43 49/11/43
f 50/14/44 49/14/44 52/14/44
f 46/11/45 45/10/45 97/10/45 98/11/45
f 25/2/46 26/1/46 78/1/46 73/2/46
f 48/10/47 47/2/47 51/10/47
f 50/14/48 52/14/48 56/14/48 54/14/48
f 49/11/49 48/10/49 51/10/49 52/11/49
f 53/2/50 54/1/50 56/1/50 55/2/50
f 52/1/51 51/2/51 55/2/51 56/1/51
f 47/2/52 50/1/52 54/1/52 53/2/52
f 51/2/53 47/2/53 53/2/53 55/2/53
f 57/2/54 58/10/54 60/10/54 59/2/54
f 63/2/55 62/13/55 58/10/55 57/2/55
f 64/2/56 63/2/56 57/2/56 59/2/56
f 61/10/57 64/2/57 59/2/57 60/10/57
f 42/10/58 41/2/58 64/2/58 61/10/58
f 39/2/59 63/2/59 67/2/59 66/2/59
f 39/2/60 40/10/60 62/13/60 63/2/60
f 40/10/61 42/10/61 61/10/61 62/13/61
f 67/2/62 68/2/62 72/2/62 71/2/62
f 63/2/63 64/2/63 68/2/63 67/2/63
f 41/2/64 39/2/64 66/2/64 65/2/64
f 64/2/65 41/2/65 65/2/65 68/2/65
f 69/2/66 70/2/66 71/2/66 72/2/66
f 66/2/67 67/2/67 71/2/67 70/2/67
f 68/2/68 65/2/68 69/2/68 72/2/68
f 65/2/69 66/2/69 70/2/69 69/2/69
f 73/2/70 74/10/70 75/10/70
f 74/10/71 76/11/71 77/11/71 75/10/71
f 76/14/72 78/14/72 77/14/72
f 74/10/73 73/2/73 47/2/73 48/10/73
f 91/15/74 79/16/74 80/17/74 81/18/74
f 90/19/75 83/20/75 84/6/75 85/7/75
f 83/20/76 89/21/76 88/22/76 84/6/76
f 80/17/77 79/23/77 89/21/77 83/20/77
f 87/24/78 82/10/78 92/10/78 93/11/78
f 3/2/79 90/19/79 85/7/79 86/3/79
f 82/10/80 81/18/80 90/19/80 3/2/80
f 81/18/81 80/17/81 83/20/81 90/19/81
f 87/11/82 91/15/82 81/18/82 82/10/82
f 3/2/83 7/1/83 94/1/83 95/2/83
f 95/2/84 92/10/84 82/10/84 3/2/84
f 92/10/85 95/2/85 9/2/85 10/10/85
f 96/12/86 97/25/86 25/2/86
f 98/26/87 99/11/87 100/27/87
f 96/12/88 99/11/88 98/11/88 97/10/88
f 96/10/89 25/2/89 73/2/89 75/10/89
f 7/1/90 5/4/90 101/3/90 103/2/90
f 103/2/91 101/3/91 168/3/91
f 6/5/92 88/5/92 166/6/92 102/6/92
f 101/3/93 5/9/93 8/8/93 104/7/93
f 104/7/94 8/8/94 6/5/94 102/6/94
f 106/10/95 170/10/95 93/11/95 11/11/95
f 104/7/96 167/7/96 168/3/96 101/3/96
f 102/6/97 166/6/97 167/7/97 104/7/97
f 105/2/98 107/2/98 16/1/98 12/1/98
f 171/2/99 105/2/99 12/1/99 94/1/99
f 23/11/100 19/11/100 110/10/100 112/10/100
f 11/11/101 15/11/101 108/10/101 106/10/101
f 106/10/102 108/10/102 107/2/102 105/2/102
f 128/2/103 113/2/103 26/1/103 43/1/103
f 112/10/104 110/10/104 109/2/104 111/2/104
f 111/2/105 109/2/105 20/1/105 24/1/105
f 114/2/106 111/2/106 24/1/106 30/1/106
f 115/10/107 112/10/107 111/2/107 114/2/107
f 27/11/108 23/11/108 112/10/108 115/10/108
f 129/10/109 173/10/109 113/2/109 128/2/109
f 174/11/110 160/11/110 158/10/110 172/12/110
f 15/11/111 27/11/111 115/10/111 108/10/111
f 115/10/112 119/10/112 117/10/112 108/10/112
f 107/2/113 114/2/113 30/1/113 16/1/113
f 117/10/114 119/10/114 118/2/114 116/2/114
f 108/10/115 117/10/115 116/2/115 107/2/115
f 114/2/116 120/2/116 121/10/116 115/10/116
f 107/2/117 116/2/117 118/2/117 114/2/117
f 121/10/118 125/10/118 127/10/118 123/10/118
f 118/2/119 122/2/119 120/2/119 114/2/119
f 115/10/120 121/10/120 123/10/120 119/10/120
f 119/10/121 123/10/121 122/2/121 118/2/121
f 145/13/122 141/10/122 143/10/122 144/10/122
f 120/2/123 124/2/123 125/10/123 121/10/123
f 122/2/124 126/2/124 124/2/124 120/2/124
f 123/10/125 127/10/125 126/2/125 122/2/125
f 110/10/126 129/10/126 128/2/126 109/2/126
f 19/11/127 46/11/127 129/10/127 110/10/127
f 109/2/128 128/2/128 43/1/128 20/1/128
f 161/14/129 133/14/129 132/14/129 159/14/129
f 156/2/130 130/2/130 133/1/130 161/1/130
f 26/14/131 161/14/131 160/14/131 174/14/131 100/14/131
f 159/11/132 132/11/132 131/10/132 157/10/132
f 133/14/133 135/14/133 132/14/133
f 46/11/134 98/11/134 173/10/134 129/10/134
f 113/2/135 156/2/135 161/1/135 26/1/135
f 131/10/136 134/10/136 130/2/136
f 133/14/137 137/14/137 139/14/137 135/14/137
f 132/11/138 135/11/138 134/10/138 131/10/138
f 136/2/139 138/2/139 139/1/139 137/1/139
f 135/1/140 139/1/140 138/2/140 134/2/140
f 130/2/141 136/2/141 137/1/141 133/1/141
f 134/2/142 138/2/142 136/2/142 130/2/142
f 140/2/143 142/2/143 143/10/143 141/10/143
f 146/2/144 140/2/144 141/10/144 145/13/144
f 147/2/145 142/2/145 140/2/145 146/2/145
f 144/10/146 143/10/146 142/2/146 147/2/146
f 127/10/147 144/10/147 147/2/147 126/2/147
f 124/2/148 149/2/148 150/2/148 146/2/148
f 124/2/149 146/2/149 145/13/149 125/10/149
f 125/10/150 145/13/150 144/10/150 127/10/150
f 150/2/151 154/2/151 155/2/151 151/2/151
f 146/2/152 150/2/152 151/2/152 147/2/152
f 126/2/153 148/2/153 149/2/153 124/2/153
f 147/2/154 151/2/154 148/2/154 126/2/154
f 152/2/155 155/2/155 154/2/155 153/2/155
f 149/2/156 153/2/156 154/2/156 150/2/156
f 151/2/157 155/2/157 152/2/157 148/2/157
f 148/2/158 152/2/158 153/2/158 149/2/158
f 156/2/159 158/10/159 157/10/159
f 157/10/160 158/10/160 160/11/160 159/11/160
f 159/14/161 160/14/161 161/14/161
f 157/10/162 131/10/162 130/2/162 156/2/162
f 91/15/163 163/18/163 162/17/163 79/16/163
f 169/19/164 167/7/164 166/6/164 165/20/164
f 165/20/165 166/6/165 88/22/165 89/21/165
f 162/17/166 165/20/166 89/21/166 79/23/166
f 87/24/167 93/11/167 170/10/167 164/10/167
f 103/2/168 168/3/168 167/7/168 169/19/168
f 164/10/169 103/2/169 169/19/169 163/18/169
f 163/18/170 169/19/170 165/20/170 162/17/170
f 87/11/171 164/10/171 163/18/171 91/15/171
f 103/2/172 171/2/172 94/1/172 7/1/172
f 171/2/173 103/2/173 164/10/173 170/10/173
f 170/10/174 106/10/174 105/2/174 171/2/174
f 172/12/175 113/2/175 173/25/175
f 98/26/176 100/27/176 174/11/176
f 172/12/177 173/10/177 98/11/177 174/11/177
f 172/10/178 158/10/178 156/2/178 113/2/178
